<mxfile host="app.diagrams.net" agent="Mozilla/5.0 (Windows NT 10.0; Win64; x64) AppleWebKit/537.36 (KHTML, like Gecko) Chrome/129.0.0.0 Safari/537.36" version="24.7.17">
  <diagram name="Page-1" id="e7e014a7-5840-1c2e-5031-d8a46d1fe8dd">
    <mxGraphModel dx="1290" dy="563" grid="1" gridSize="10" guides="1" tooltips="1" connect="1" arrows="1" fold="1" page="1" pageScale="1" pageWidth="1169" pageHeight="826" background="none" math="0" shadow="0">
      <root>
        <mxCell id="0" />
        <mxCell id="1" parent="0" />
        <mxCell id="2" value="User" style="swimlane;whiteSpace=wrap" parent="1" vertex="1">
          <mxGeometry x="20" y="50" width="680" height="740" as="geometry" />
        </mxCell>
        <mxCell id="5" value="" style="ellipse;shape=startState;fillColor=#000000;strokeColor=#ff0000;" parent="2" vertex="1">
          <mxGeometry x="255" y="32" width="30" height="30" as="geometry" />
        </mxCell>
        <mxCell id="6" value="" style="edgeStyle=elbowEdgeStyle;elbow=horizontal;verticalAlign=bottom;endArrow=open;endSize=8;strokeColor=#FF0000;endFill=1;rounded=0" parent="2" source="5" target="83X8opylNErL8YkWVpTd-27" edge="1">
          <mxGeometry x="100" y="40" as="geometry">
            <mxPoint x="270" y="90" as="targetPoint" />
          </mxGeometry>
        </mxCell>
        <mxCell id="9" value="" style="endArrow=open;strokeColor=#FF0000;endFill=1;rounded=0" parent="2" source="83X8opylNErL8YkWVpTd-27" target="83X8opylNErL8YkWVpTd-28" edge="1">
          <mxGeometry relative="1" as="geometry">
            <mxPoint x="270" y="140" as="sourcePoint" />
            <mxPoint x="270" y="172" as="targetPoint" />
          </mxGeometry>
        </mxCell>
        <mxCell id="u1ysFpymqZyDRabq69S2-60" value="" style="whiteSpace=wrap;strokeColor=#FF0000;fillColor=#FF0000;direction=south;" parent="2" vertex="1">
          <mxGeometry x="255" y="390" width="140" height="5" as="geometry" />
        </mxCell>
        <mxCell id="u1ysFpymqZyDRabq69S2-61" value="" style="endArrow=open;strokeColor=#FF0000;endFill=1;rounded=0;entryX=1;entryY=0.413;entryDx=0;entryDy=0;entryPerimeter=0;" parent="2" target="u1ysFpymqZyDRabq69S2-60" edge="1">
          <mxGeometry relative="1" as="geometry">
            <mxPoint x="339.06491097922844" y="292" as="sourcePoint" />
            <mxPoint x="450" y="262" as="targetPoint" />
          </mxGeometry>
        </mxCell>
        <mxCell id="u1ysFpymqZyDRabq69S2-71" value="" style="endArrow=open;strokeColor=#FF0000;endFill=1;rounded=0;entryX=0.28;entryY=0.311;entryDx=0;entryDy=0;entryPerimeter=0;" parent="2" source="83X8opylNErL8YkWVpTd-29" target="u1ysFpymqZyDRabq69S2-60" edge="1">
          <mxGeometry relative="1" as="geometry">
            <mxPoint x="550" y="367.2950079060312" as="sourcePoint" />
            <mxPoint x="595" y="330" as="targetPoint" />
          </mxGeometry>
        </mxCell>
        <mxCell id="83X8opylNErL8YkWVpTd-27" value="Đăng nhập" style="direction=south;" vertex="1" parent="2">
          <mxGeometry x="175" y="90" width="190" height="52.5" as="geometry" />
        </mxCell>
        <mxCell id="83X8opylNErL8YkWVpTd-28" value="Nhấn vào danh sách nhóm" style="direction=south;" vertex="1" parent="2">
          <mxGeometry x="175" y="160" width="190" height="52.5" as="geometry" />
        </mxCell>
        <mxCell id="83X8opylNErL8YkWVpTd-29" value="Tìm kiếm người dùng" style="direction=south;" vertex="1" parent="2">
          <mxGeometry x="460" y="250" width="190" height="52.5" as="geometry" />
        </mxCell>
        <mxCell id="83X8opylNErL8YkWVpTd-30" value="Thêm người dùng" style="direction=south;" vertex="1" parent="2">
          <mxGeometry x="260.13" y="250" width="190" height="52.5" as="geometry" />
        </mxCell>
        <mxCell id="83X8opylNErL8YkWVpTd-31" value="Xóa người dùng ra khỏi nhóm" style="direction=south;" vertex="1" parent="2">
          <mxGeometry x="15" y="250" width="190" height="52.5" as="geometry" />
        </mxCell>
        <mxCell id="83X8opylNErL8YkWVpTd-33" value="" style="endArrow=open;strokeColor=#FF0000;endFill=1;rounded=0;entryX=0.04;entryY=0.607;entryDx=0;entryDy=0;entryPerimeter=0;" edge="1" parent="2" source="83X8opylNErL8YkWVpTd-31" target="u1ysFpymqZyDRabq69S2-60">
          <mxGeometry relative="1" as="geometry">
            <mxPoint x="349.06491097922844" y="302" as="sourcePoint" />
            <mxPoint x="347" y="405" as="targetPoint" />
          </mxGeometry>
        </mxCell>
        <mxCell id="3" value="Hệ thống" style="swimlane;whiteSpace=wrap" parent="1" vertex="1">
          <mxGeometry x="700" y="50" width="385.5" height="740" as="geometry" />
        </mxCell>
        <mxCell id="17" value="" style="endArrow=open;strokeColor=#FF0000;endFill=1;rounded=0" parent="3" edge="1">
          <mxGeometry relative="1" as="geometry">
            <mxPoint x="75" y="160" as="sourcePoint" />
          </mxGeometry>
        </mxCell>
        <mxCell id="26" value="" style="edgeStyle=elbowEdgeStyle;elbow=horizontal;verticalAlign=bottom;endArrow=open;endSize=8;strokeColor=#FF0000;endFill=1;rounded=0" parent="3" edge="1">
          <mxGeometry x="130" y="90" as="geometry">
            <mxPoint x="130" y="135" as="targetPoint" />
          </mxGeometry>
        </mxCell>
        <mxCell id="u1ysFpymqZyDRabq69S2-37" value="Thông &#xa;báo&#xa; không&#xa; có &#xa;quyền" style="direction=south;" parent="3" vertex="1">
          <mxGeometry x="150" y="380" width="50" height="72.5" as="geometry" />
        </mxCell>
        <mxCell id="u1ysFpymqZyDRabq69S2-35" value="" style="whiteSpace=wrap;strokeColor=#FF0000;fillColor=#FF0000;direction=west;" parent="3" vertex="1">
          <mxGeometry x="270" y="445" width="5" height="45" as="geometry" />
        </mxCell>
        <mxCell id="u1ysFpymqZyDRabq69S2-65" value="" style="endArrow=open;strokeColor=#FF0000;endFill=1;rounded=0;entryX=1;entryY=0.75;entryDx=0;entryDy=0;" parent="3" source="u1ysFpymqZyDRabq69S2-37" target="u1ysFpymqZyDRabq69S2-35" edge="1">
          <mxGeometry relative="1" as="geometry">
            <mxPoint x="-173" y="497" as="sourcePoint" />
            <mxPoint x="-206" y="550" as="targetPoint" />
          </mxGeometry>
        </mxCell>
        <mxCell id="u1ysFpymqZyDRabq69S2-82" value="Thông&#xa; báo &#xa;thành &#xa;công" style="direction=south;" parent="3" vertex="1">
          <mxGeometry x="150" y="490" width="50" height="72.5" as="geometry" />
        </mxCell>
        <mxCell id="u1ysFpymqZyDRabq69S2-84" value="" style="endArrow=open;strokeColor=#FF0000;endFill=1;rounded=0;entryX=1;entryY=0.25;entryDx=0;entryDy=0;" parent="3" source="u1ysFpymqZyDRabq69S2-82" target="u1ysFpymqZyDRabq69S2-35" edge="1">
          <mxGeometry relative="1" as="geometry">
            <mxPoint x="245" y="682.5" as="sourcePoint" />
            <mxPoint x="325" y="683" as="targetPoint" />
          </mxGeometry>
        </mxCell>
        <mxCell id="bhqzJydA3iUec34EVbpJ-41" value="" style="ellipse;shape=endState;fillColor=#000000;strokeColor=#ff0000" parent="3" vertex="1">
          <mxGeometry x="315" y="452.5" width="30" height="30" as="geometry" />
        </mxCell>
        <mxCell id="u1ysFpymqZyDRabq69S2-66" value="" style="endArrow=open;strokeColor=#FF0000;endFill=1;rounded=0;exitX=1;exitY=0.5;exitDx=0;exitDy=0;" parent="3" source="u1ysFpymqZyDRabq69S2-35" target="bhqzJydA3iUec34EVbpJ-41" edge="1">
          <mxGeometry relative="1" as="geometry">
            <mxPoint x="235" y="477.5" as="sourcePoint" />
            <mxPoint x="-211" y="460" as="targetPoint" />
          </mxGeometry>
        </mxCell>
        <mxCell id="u1ysFpymqZyDRabq69S2-26" value="Kiểm tra quyền" style="rhombus;fillColor=#ffffc0;strokeColor=#ff0000;" parent="3" vertex="1">
          <mxGeometry x="30" y="440" width="80" height="40" as="geometry" />
        </mxCell>
        <mxCell id="u1ysFpymqZyDRabq69S2-36" value="" style="endArrow=open;strokeColor=#FF0000;endFill=1;rounded=0" parent="3" source="u1ysFpymqZyDRabq69S2-26" target="u1ysFpymqZyDRabq69S2-37" edge="1">
          <mxGeometry relative="1" as="geometry">
            <mxPoint x="-88" y="384" as="sourcePoint" />
            <mxPoint x="270" y="310" as="targetPoint" />
          </mxGeometry>
        </mxCell>
        <mxCell id="u1ysFpymqZyDRabq69S2-38" value="Sai" style="edgeLabel;html=1;align=center;verticalAlign=middle;resizable=0;points=[];" parent="u1ysFpymqZyDRabq69S2-36" vertex="1" connectable="0">
          <mxGeometry x="0.2591" relative="1" as="geometry">
            <mxPoint as="offset" />
          </mxGeometry>
        </mxCell>
        <mxCell id="u1ysFpymqZyDRabq69S2-27" value="" style="endArrow=open;strokeColor=#FF0000;endFill=1;rounded=0;" parent="3" source="u1ysFpymqZyDRabq69S2-26" target="u1ysFpymqZyDRabq69S2-82" edge="1">
          <mxGeometry relative="1" as="geometry">
            <mxPoint x="-305" y="298" as="sourcePoint" />
            <mxPoint x="228" y="670" as="targetPoint" />
          </mxGeometry>
        </mxCell>
        <mxCell id="u1ysFpymqZyDRabq69S2-28" value="Đúng" style="edgeLabel;html=1;align=center;verticalAlign=middle;resizable=0;points=[];" parent="u1ysFpymqZyDRabq69S2-27" vertex="1" connectable="0">
          <mxGeometry x="0.0343" y="-1" relative="1" as="geometry">
            <mxPoint as="offset" />
          </mxGeometry>
        </mxCell>
        <mxCell id="83X8opylNErL8YkWVpTd-35" value="" style="endArrow=open;strokeColor=#FF0000;endFill=1;rounded=0;exitX=0.84;exitY=0.316;exitDx=0;exitDy=0;exitPerimeter=0;" edge="1" parent="1" source="u1ysFpymqZyDRabq69S2-60" target="u1ysFpymqZyDRabq69S2-26">
          <mxGeometry relative="1" as="geometry">
            <mxPoint x="369.06491097922844" y="352" as="sourcePoint" />
            <mxPoint x="367" y="455" as="targetPoint" />
            <Array as="points">
              <mxPoint x="370" y="510" />
            </Array>
          </mxGeometry>
        </mxCell>
      </root>
    </mxGraphModel>
  </diagram>
</mxfile>
